<mxfile host="app.diagrams.net" modified="2024-06-07T10:31:08.854Z" agent="Mozilla/5.0 (Windows NT 10.0; Win64; x64) AppleWebKit/537.36 (KHTML, like Gecko) Chrome/122.0.0.0 YaBrowser/24.4.0.0 Safari/537.36" etag="9cBrVk19lcQw0vx63dYB" border="50" scale="3" compressed="false" locked="false" version="24.4.9" type="github">
  <diagram name="Blank" id="YmL12bMKpDGza6XwsDPr">
    <mxGraphModel dx="1900" dy="1221" grid="0" gridSize="10" guides="1" tooltips="1" connect="1" arrows="1" fold="1" page="0" pageScale="1" pageWidth="827" pageHeight="1169" background="none" math="1" shadow="0">
      <root>
        <mxCell id="X5NqExCQtvZxIxQ7pmgY-0" />
        <mxCell id="1" parent="X5NqExCQtvZxIxQ7pmgY-0" />
        <mxCell id="Gr0Zq-AI6Quabplr0KPa-179" value="Mindmap" style="swimlane;html=1;startSize=20;horizontal=1;containerType=tree;labelBackgroundColor=none;strokeColor=#D4E1F5;strokeWidth=1;fillColor=none;fontFamily=Comic Sans MS;fontSize=9;swimlaneLine=0;dashed=1;collapsible=0;" parent="1" vertex="1">
          <mxGeometry x="-400" y="-280" width="1474" height="678" as="geometry" />
        </mxCell>
        <mxCell id="0f7xT5Wt3r66LkhqO_MR-14" style="edgeStyle=orthogonalEdgeStyle;rounded=0;orthogonalLoop=1;jettySize=auto;html=1;exitX=0.5;exitY=1;exitDx=0;exitDy=0;entryX=0.5;entryY=0;entryDx=0;entryDy=0;" edge="1" parent="Gr0Zq-AI6Quabplr0KPa-179" source="0f7xT5Wt3r66LkhqO_MR-1" target="0f7xT5Wt3r66LkhqO_MR-27">
          <mxGeometry relative="1" as="geometry">
            <mxPoint x="583" y="153" as="targetPoint" />
          </mxGeometry>
        </mxCell>
        <mxCell id="0f7xT5Wt3r66LkhqO_MR-15" style="edgeStyle=orthogonalEdgeStyle;rounded=0;orthogonalLoop=1;jettySize=auto;html=1;exitX=0;exitY=0.5;exitDx=0;exitDy=0;entryX=0.5;entryY=0;entryDx=0;entryDy=0;" edge="1" parent="Gr0Zq-AI6Quabplr0KPa-179" source="0f7xT5Wt3r66LkhqO_MR-1" target="0f7xT5Wt3r66LkhqO_MR-4">
          <mxGeometry relative="1" as="geometry" />
        </mxCell>
        <mxCell id="0f7xT5Wt3r66LkhqO_MR-1" value="main&lt;br&gt;Получает на вход файл с ссылками на чаты" style="rounded=0;whiteSpace=wrap;html=1;" vertex="1" parent="Gr0Zq-AI6Quabplr0KPa-179">
          <mxGeometry x="530.5" y="30" width="120" height="60" as="geometry" />
        </mxCell>
        <mxCell id="0f7xT5Wt3r66LkhqO_MR-4" value="Парсер пользователей. Получает на вход ссылку на чат, отдает список пользователей" style="rounded=1;whiteSpace=wrap;html=1;" vertex="1" parent="Gr0Zq-AI6Quabplr0KPa-179">
          <mxGeometry x="310" y="90" width="163" height="110" as="geometry" />
        </mxCell>
        <mxCell id="0f7xT5Wt3r66LkhqO_MR-11" value="" style="edgeStyle=orthogonalEdgeStyle;rounded=0;orthogonalLoop=1;jettySize=auto;html=1;" edge="1" source="0f7xT5Wt3r66LkhqO_MR-4" target="0f7xT5Wt3r66LkhqO_MR-12" parent="Gr0Zq-AI6Quabplr0KPa-179">
          <mxGeometry relative="1" as="geometry" />
        </mxCell>
        <mxCell id="0f7xT5Wt3r66LkhqO_MR-12" value="Парсер пользователей, на случай скрытых пользователей чата" style="rounded=1;whiteSpace=wrap;html=1;" vertex="1" parent="Gr0Zq-AI6Quabplr0KPa-179">
          <mxGeometry x="46" y="65" width="163" height="43" as="geometry" />
        </mxCell>
        <mxCell id="0f7xT5Wt3r66LkhqO_MR-20" value="Хендлер пользователей&lt;div&gt;на вход получает ссылку на чат и уже актуальный список пользователей чата&lt;/div&gt;" style="rounded=1;whiteSpace=wrap;html=1;" vertex="1" parent="Gr0Zq-AI6Quabplr0KPa-179">
          <mxGeometry x="46" y="144" width="184" height="79" as="geometry" />
        </mxCell>
        <mxCell id="0f7xT5Wt3r66LkhqO_MR-21" style="edgeStyle=orthogonalEdgeStyle;rounded=0;orthogonalLoop=1;jettySize=auto;html=1;exitX=0.5;exitY=1;exitDx=0;exitDy=0;" edge="1" parent="Gr0Zq-AI6Quabplr0KPa-179" source="0f7xT5Wt3r66LkhqO_MR-20" target="0f7xT5Wt3r66LkhqO_MR-20">
          <mxGeometry relative="1" as="geometry" />
        </mxCell>
        <mxCell id="0f7xT5Wt3r66LkhqO_MR-27" value="Хендлер сообщений. Определяет тип сообщения и отправляет в обработчик медиа, если это медиа." style="rounded=1;whiteSpace=wrap;html=1;" vertex="1" parent="Gr0Zq-AI6Quabplr0KPa-179">
          <mxGeometry x="735" y="43" width="177" height="117" as="geometry" />
        </mxCell>
        <mxCell id="0f7xT5Wt3r66LkhqO_MR-30" style="edgeStyle=orthogonalEdgeStyle;rounded=0;orthogonalLoop=1;jettySize=auto;html=1;exitX=0.5;exitY=1;exitDx=0;exitDy=0;entryX=0.5;entryY=0;entryDx=0;entryDy=0;" edge="1" target="0f7xT5Wt3r66LkhqO_MR-31" source="0f7xT5Wt3r66LkhqO_MR-27" parent="Gr0Zq-AI6Quabplr0KPa-179">
          <mxGeometry relative="1" as="geometry">
            <mxPoint x="231" y="-196" as="sourcePoint" />
            <mxPoint x="228" y="-133" as="targetPoint" />
          </mxGeometry>
        </mxCell>
        <mxCell id="0f7xT5Wt3r66LkhqO_MR-31" value="Определитель типа сообщения. Отсюда он сообщение закидывает в функцию в зависимости от типа медиа" style="rounded=1;whiteSpace=wrap;html=1;" vertex="1" parent="Gr0Zq-AI6Quabplr0KPa-179">
          <mxGeometry x="981" y="35" width="261" height="71" as="geometry" />
        </mxCell>
        <mxCell id="0f7xT5Wt3r66LkhqO_MR-36" value="" style="endArrow=classic;startArrow=classic;html=1;rounded=0;exitX=0.5;exitY=0;exitDx=0;exitDy=0;entryX=0;entryY=0.5;entryDx=0;entryDy=0;" edge="1" parent="Gr0Zq-AI6Quabplr0KPa-179" source="0f7xT5Wt3r66LkhqO_MR-20" target="0f7xT5Wt3r66LkhqO_MR-4">
          <mxGeometry width="50" height="50" relative="1" as="geometry">
            <mxPoint x="703" y="416" as="sourcePoint" />
            <mxPoint x="753" y="366" as="targetPoint" />
          </mxGeometry>
        </mxCell>
        <mxCell id="0f7xT5Wt3r66LkhqO_MR-38" style="edgeStyle=orthogonalEdgeStyle;rounded=0;orthogonalLoop=1;jettySize=auto;html=1;exitX=0;exitY=0.5;exitDx=0;exitDy=0;entryX=0.5;entryY=0;entryDx=0;entryDy=0;" edge="1" target="0f7xT5Wt3r66LkhqO_MR-39" source="0f7xT5Wt3r66LkhqO_MR-4" parent="Gr0Zq-AI6Quabplr0KPa-179">
          <mxGeometry relative="1" as="geometry">
            <mxPoint x="114" y="-232" as="sourcePoint" />
          </mxGeometry>
        </mxCell>
        <mxCell id="0f7xT5Wt3r66LkhqO_MR-39" value="Пользователи чата записываются в базу данных postgreSQL" style="rounded=1;whiteSpace=wrap;html=1;glass=1;sketch=1;curveFitting=1;jiggle=2;shadow=1;" vertex="1" parent="Gr0Zq-AI6Quabplr0KPa-179">
          <mxGeometry x="189" y="537" width="140" height="80" as="geometry" />
        </mxCell>
        <mxCell id="0f7xT5Wt3r66LkhqO_MR-43" value="Обработчик медиа. Создает хэши и т.п.&lt;div&gt;&lt;br/&gt;&lt;/div&gt;" style="rounded=1;whiteSpace=wrap;html=1;" vertex="1" parent="Gr0Zq-AI6Quabplr0KPa-179">
          <mxGeometry x="1288" y="35" width="166" height="71" as="geometry" />
        </mxCell>
        <mxCell id="0f7xT5Wt3r66LkhqO_MR-50" value="" style="endArrow=classic;startArrow=classic;html=1;rounded=0;entryX=0.5;entryY=1;entryDx=0;entryDy=0;exitX=0.5;exitY=1;exitDx=0;exitDy=0;" edge="1" parent="Gr0Zq-AI6Quabplr0KPa-179" source="0f7xT5Wt3r66LkhqO_MR-43" target="0f7xT5Wt3r66LkhqO_MR-27">
          <mxGeometry width="50" height="50" relative="1" as="geometry">
            <mxPoint x="686" y="404" as="sourcePoint" />
            <mxPoint x="736" y="354" as="targetPoint" />
            <Array as="points">
              <mxPoint x="1371" y="202" />
              <mxPoint x="824" y="202" />
            </Array>
          </mxGeometry>
        </mxCell>
        <mxCell id="0f7xT5Wt3r66LkhqO_MR-52" style="edgeStyle=orthogonalEdgeStyle;rounded=0;orthogonalLoop=1;jettySize=auto;html=1;exitX=0.5;exitY=1;exitDx=0;exitDy=0;entryX=0.5;entryY=0;entryDx=0;entryDy=0;" edge="1" target="0f7xT5Wt3r66LkhqO_MR-53" source="0f7xT5Wt3r66LkhqO_MR-27" parent="Gr0Zq-AI6Quabplr0KPa-179">
          <mxGeometry relative="1" as="geometry">
            <mxPoint x="191" y="-190" as="sourcePoint" />
            <mxPoint x="183" y="-127" as="targetPoint" />
          </mxGeometry>
        </mxCell>
        <mxCell id="0f7xT5Wt3r66LkhqO_MR-53" value="Записываем данные в clickhouse, медиа&amp;nbsp;" style="rounded=1;whiteSpace=wrap;html=1;" vertex="1" parent="Gr0Zq-AI6Quabplr0KPa-179">
          <mxGeometry x="735" y="329" width="177" height="117" as="geometry" />
        </mxCell>
      </root>
    </mxGraphModel>
  </diagram>
</mxfile>
